<mxfile host="app.diagrams.net" modified="2023-05-03T17:40:43.721Z" agent="Mozilla/5.0 (Windows NT 10.0; Win64; x64) AppleWebKit/537.36 (KHTML, like Gecko) Chrome/112.0.0.0 Safari/537.36" etag="4Y3eqf5qPC4LwzPPMC1v" version="21.2.7" type="device">
  <diagram name="Strona-1" id="I61TD8CDBZcrhlcRAUoh">
    <mxGraphModel dx="1509" dy="804" grid="1" gridSize="10" guides="1" tooltips="1" connect="1" arrows="1" fold="1" page="1" pageScale="1" pageWidth="1920" pageHeight="1200" math="0" shadow="0">
      <root>
        <mxCell id="0" />
        <mxCell id="1" parent="0" />
        <mxCell id="AhOyB6xF3FRpd3r5ZhqJ-1" value="&lt;font face=&quot;Comic Sans MS&quot; style=&quot;font-size: 16px;&quot;&gt;Enter email&lt;/font&gt;" style="rounded=0;whiteSpace=wrap;html=1;sketch=1;curveFitting=1;jiggle=2;" vertex="1" parent="1">
          <mxGeometry x="380" y="345" width="100" height="40" as="geometry" />
        </mxCell>
        <mxCell id="AhOyB6xF3FRpd3r5ZhqJ-2" value="" style="shape=image;verticalLabelPosition=bottom;labelBackgroundColor=default;verticalAlign=top;aspect=fixed;imageAspect=0;image=data:image/svg+xml,PHN2ZyB4bWxuczp4bGluaz0iaHR0cDovL3d3dy53My5vcmcvMTk5OS94bGluayIgeG1sbnM9Imh0dHA6Ly93d3cudzMub3JnLzIwMDAvc3ZnIiB2aWV3Qm94PSIwIDAgMTc0LjM4NCAyMTAuNTYxODEiPiYjeGE7IDxkZWZzPiYjeGE7ICA8bGluZWFyR3JhZGllbnQgaWQ9ImQiPiYjeGE7ICAgPHN0b3Agb2Zmc2V0PSIwIiBzdG9wLWNvbG9yPSIjMWI0YTc4Ii8+JiN4YTsgICA8c3RvcCBvZmZzZXQ9IjEiIHN0b3AtY29sb3I9IiM1ZGFjZDEiLz4mI3hhOyAgPC9saW5lYXJHcmFkaWVudD4mI3hhOyAgPGxpbmVhckdyYWRpZW50IGdyYWRpZW50VW5pdHM9InVzZXJTcGFjZU9uVXNlIiB5Mj0iNTkyLjgyIiB5MT0iNjI4Ljc5IiB4Mj0iNTQwLjEyIiB4MT0iMjU5LjYxIiBpZD0iYiI+JiN4YTsgICA8c3RvcCBvZmZzZXQ9IjAiIHN0b3AtY29sb3I9IiM0MzhhYjkiLz4mI3hhOyAgIDxzdG9wIG9mZnNldD0iMSIgc3RvcC1jb2xvcj0iIzM5NzY5ZSIvPiYjeGE7ICA8L2xpbmVhckdyYWRpZW50PiYjeGE7ICA8bGluZWFyR3JhZGllbnQgZ3JhZGllbnRVbml0cz0idXNlclNwYWNlT25Vc2UiIHkyPSI1OTIuODIiIHkxPSI2MjguNzkiIHgyPSI1NDAuMTIiIHgxPSIyNTkuNjEiIGlkPSJhIj4mI3hhOyAgIDxzdG9wIG9mZnNldD0iMCIgc3RvcC1jb2xvcj0iIzFjNDc2NCIvPiYjeGE7ICAgPHN0b3Agb2Zmc2V0PSIxIiBzdG9wLWNvbG9yPSIjMzk3NjllIi8+JiN4YTsgIDwvbGluZWFyR3JhZGllbnQ+JiN4YTsgIDxsaW5lYXJHcmFkaWVudCBncmFkaWVudFVuaXRzPSJ1c2VyU3BhY2VPblVzZSIgeTI9IjYxOS40MSIgeTE9IjYwMi43MiIgeDI9IjUxMi43NiIgeDE9IjI1Ni42NCIgaWQ9ImYiPiYjeGE7ICAgPHN0b3Agb2Zmc2V0PSIwIiBzdG9wLWNvbG9yPSIjNTI5NWMwIi8+JiN4YTsgICA8c3RvcCBvZmZzZXQ9IjEiIHN0b3AtY29sb3I9IiM1ZjlkYzUiLz4mI3hhOyAgPC9saW5lYXJHcmFkaWVudD4mI3hhOyAgPGxpbmVhckdyYWRpZW50IHhsaW5rOmhyZWY9IiNkIiBncmFkaWVudFVuaXRzPSJ1c2VyU3BhY2VPblVzZSIgeDI9IjE3My4yMSIgeDE9IjM0LjUxNyIgaWQ9ImMiLz4mI3hhOyAgPGxpbmVhckdyYWRpZW50IHhsaW5rOmhyZWY9IiNkIiBncmFkaWVudFVuaXRzPSJ1c2VyU3BhY2VPblVzZSIgeDI9IjE3Mi4yOCIgeDE9IjMzLjU4MiIgaWQ9ImciLz4mI3hhOyAgPHJhZGlhbEdyYWRpZW50IGdyYWRpZW50VW5pdHM9InVzZXJTcGFjZU9uVXNlIiBncmFkaWVudFRyYW5zZm9ybT0ibWF0cml4KDEgMCAwIC4xNzcxOCAwIDQ5NS45MykiIHI9IjE0Ny4xNCIgY3k9IjYwMi43MiIgY3g9IjMyOC41NyIgaWQ9ImUiPiYjeGE7ICAgPHN0b3Agb2Zmc2V0PSIwIiBzdG9wLWNvbG9yPSIjNDg0ODQ5Ii8+JiN4YTsgICA8c3RvcCBvZmZzZXQ9IjAiIHN0b3AtY29sb3I9IiM0MzQzNDQiLz4mI3hhOyAgIDxzdG9wIG9mZnNldD0iMSIgc3RvcC1vcGFjaXR5PSIwIiBzdG9wLWNvbG9yPSIjOGY4ZjkwIi8+JiN4YTsgIDwvcmFkaWFsR3JhZGllbnQ+JiN4YTsgPC9kZWZzPiYjeGE7IDxwYXRoIGZpbGw9InVybCgjZSkiIGQ9Im00NzUuNzEgNjAyLjcyYzAgMTQuMzk5LTY1Ljg3OCAyNi4wNzEtMTQ3LjE0IDI2LjA3MXMtMTQ3LjE0LTExLjY3My0xNDcuMTQtMjYuMDcxIDY1Ljg3OC0yNi4wNzEgMTQ3LjE0LTI2LjA3MSAxNDcuMTQgMTEuNjczIDE0Ny4xNCAyNi4wNzF6IiB0cmFuc2Zvcm09Im1hdHJpeCguNTkyNTcgMCAwIDEuMDQ1OSAtMTA3LjUxIC00NDcuMSkiLz4mI3hhOyA8ZyB0cmFuc2Zvcm09InRyYW5zbGF0ZSgtMTMuMDY1IC0xMDUuNDUpIj4mI3hhOyAgPHBhdGggZmlsbD0idXJsKCNhKSIgZD0ibTQ3NS43MSA2MDIuNzJjMCAxNC4zOTktNjUuODc4IDI2LjA3MS0xNDcuMTQgMjYuMDcxcy0xNDcuMTQtMTEuNjczLTE0Ny4xNC0yNi4wNzEgNjUuODc4LTI2LjA3MSAxNDcuMTQtMjYuMDcxIDE0Ny4xNCAxMS42NzMgMTQ3LjE0IDI2LjA3MXoiIHRyYW5zZm9ybT0ibWF0cml4KC40NzEzMSAwIDAgMS4wNDU5IC01MC45ODUgLTM2MS4zOCkiLz4mI3hhOyAgPHBhdGggZmlsbD0idXJsKCNjKSIgZD0ibTM0LjUzNSAyMjQuMnYwLjI5NDU3YzZlLTMgLTAuMDk3NSAwLjAyMDYtMC4xOTcyOSAwLjAyOTUtMC4yOTQ1N2gtMC4wMjk1em0xMzguNjIgMGMwLjAzMDIgMC4zMzA0NCAwLjA1ODkgMC42NjgyMSAwLjA1ODkgMS4wMDE1di0xLjAwMTVoLTAuMDU4OXptMC4wNTg5IDEuMDAxNWMtMWUtNSAxNS4wNTItMzEuMDc1IDI3LjI2Mi02OS4zNTYgMjcuMjYyLTM3LjY4MyAxZS01IC02OC4zNzYtMTEuODI4LTY5LjMyNi0yNi41NTV2NDAuNjhjLTAuMDE1MSAwLjIzMzc2LTAuMDE0NyAwLjQ1NzA0LTAuMDE0NyAwLjY5MjIzIDAgMC4yMjU0NiA4LjdlLTQgMC40NTMzNSAwLjAxNDcgMC42Nzc1MSAwLjkxMTUxIDE0Ljc0MSAzMS42MTkgMjYuNTk5IDY5LjMyNiAyNi41OTlzNjguNDE1LTExLjg1OCA2OS4zMjYtMjYuNTk5aDAuMDI5NXYtMC41MDA3N2M5LjVlLTQgLTAuMDU4NyAwLTAuMTE3OTQgMC0wLjE3Njc0czkuNGUtNCAtMC4xMTgwMyAwLTAuMTc2NzR2LTQxLjkwMnoiLz4mI3hhOyAgPHBhdGggZmlsbD0idXJsKCNiKSIgZD0ibTQ3NS43MSA2MDIuNzJjMCAxNC4zOTktNjUuODc4IDI2LjA3MS0xNDcuMTQgMjYuMDcxcy0xNDcuMTQtMTEuNjczLTE0Ny4xNC0yNi4wNzEgNjUuODc4LTI2LjA3MSAxNDcuMTQtMjYuMDcxIDE0Ny4xNCAxMS42NzMgMTQ3LjE0IDI2LjA3MXoiIHRyYW5zZm9ybT0ibWF0cml4KC40NzEzMSAwIDAgMS4wNDU5IC01MC45NjUgLTQwNS4wMikiLz4mI3hhOyA8L2c+JiN4YTsgPGcgdHJhbnNmb3JtPSJ0cmFuc2xhdGUoLTEyLjkzNiAtMTUwLjk2KSI+JiN4YTsgIDxwYXRoIGZpbGw9InVybCgjYSkiIGQ9Im00NzUuNzEgNjAyLjcyYzAgMTQuMzk5LTY1Ljg3OCAyNi4wNzEtMTQ3LjE0IDI2LjA3MXMtMTQ3LjE0LTExLjY3My0xNDcuMTQtMjYuMDcxIDY1Ljg3OC0yNi4wNzEgMTQ3LjE0LTI2LjA3MSAxNDcuMTQgMTEuNjczIDE0Ny4xNCAyNi4wNzF6IiB0cmFuc2Zvcm09Im1hdHJpeCguNDcxMzEgMCAwIDEuMDQ1OSAtNTAuOTg1IC0zNjEuMzgpIi8+JiN4YTsgIDxwYXRoIGZpbGw9InVybCgjYykiIGQ9Im0zNC41MzUgMjI0LjJ2MC4yOTQ1N2M2ZS0zIC0wLjA5NzUgMC4wMjA2LTAuMTk3MjkgMC4wMjk1LTAuMjk0NTdoLTAuMDI5NXptMTM4LjYyIDBjMC4wMzAyIDAuMzMwNDQgMC4wNTg5IDAuNjY4MjEgMC4wNTg5IDEuMDAxNXYtMS4wMDE1aC0wLjA1ODl6bTAuMDU4OSAxLjAwMTVjLTFlLTUgMTUuMDUyLTMxLjA3NSAyNy4yNjItNjkuMzU2IDI3LjI2Mi0zNy42ODMgMWUtNSAtNjguMzc2LTExLjgyOC02OS4zMjYtMjYuNTU1djQwLjY4Yy0wLjAxNTEgMC4yMzM3Ni0wLjAxNDcgMC40NTcwNC0wLjAxNDcgMC42OTIyMyAwIDAuMjI1NDYgOC43ZS00IDAuNDUzMzUgMC4wMTQ3IDAuNjc3NTEgMC45MTE1MSAxNC43NDEgMzEuNjE5IDI2LjU5OSA2OS4zMjYgMjYuNTk5czY4LjQxNS0xMS44NTggNjkuMzI2LTI2LjU5OWgwLjAyOTV2LTAuNTAwNzdjOS41ZS00IC0wLjA1ODcgMC0wLjExNzk0IDAtMC4xNzY3NHM5LjRlLTQgLTAuMTE4MDMgMC0wLjE3Njc0di00MS45MDJ6Ii8+JiN4YTsgIDxwYXRoIGZpbGw9InVybCgjYikiIGQ9Im00NzUuNzEgNjAyLjcyYzAgMTQuMzk5LTY1Ljg3OCAyNi4wNzEtMTQ3LjE0IDI2LjA3MXMtMTQ3LjE0LTExLjY3My0xNDcuMTQtMjYuMDcxIDY1Ljg3OC0yNi4wNzEgMTQ3LjE0LTI2LjA3MSAxNDcuMTQgMTEuNjczIDE0Ny4xNCAyNi4wNzF6IiB0cmFuc2Zvcm09Im1hdHJpeCguNDcxMzEgMCAwIDEuMDQ1OSAtNTAuOTY1IC00MDUuMDIpIi8+JiN4YTsgPC9nPiYjeGE7IDxnIHRyYW5zZm9ybT0idHJhbnNsYXRlKC0xMi4xODQgLTExNy4xMykiPiYjeGE7ICA8cGF0aCBmaWxsPSJ1cmwoI2EpIiBkPSJtNDc1LjcxIDYwMi43MmMwIDE0LjM5OS02NS44NzggMjYuMDcxLTE0Ny4xNCAyNi4wNzFzLTE0Ny4xNC0xMS42NzMtMTQ3LjE0LTI2LjA3MSA2NS44NzgtMjYuMDcxIDE0Ny4xNC0yNi4wNzEgMTQ3LjE0IDExLjY3MyAxNDcuMTQgMjYuMDcxeiIgdHJhbnNmb3JtPSJtYXRyaXgoLjQ3MTMxIDAgMCAxLjA0NTkgLTUxLjkyMSAtNDQwLjk0KSIvPiYjeGE7ICA8cGF0aCBmaWxsPSJ1cmwoI2cpIiBkPSJtMzMuNTk5IDE0NC42NHYwLjI5NDU3YzZlLTMgLTAuMDk3NSAwLjAyMDYtMC4xOTcyOSAwLjAyOTUtMC4yOTQ1N2gtMC4wMjk1em0xMzguNjIgMGMwLjAzMDIgMC4zMzA0NCAwLjA1ODkgMC42NjgyMSAwLjA1ODkgMS4wMDE1di0xLjAwMTVoLTAuMDU4OXptMC4wNTg5IDEuMDAxNWMtMWUtNSAxNS4wNTItMzEuMDc1IDI3LjI2Mi02OS4zNTYgMjcuMjYyLTM3LjY4MyAxZS01IC02OC4zNzYtMTEuODI4LTY5LjMyNi0yNi41NTV2NDAuNjhjLTAuMDE1MSAwLjIzMzc2LTAuMDE0NyAwLjQ1NzA0LTAuMDE0NyAwLjY5MjIzIDAgMC4yMjU0NiA4LjdlLTQgMC40NTMzNSAwLjAxNDcgMC42Nzc1MSAwLjkxMTUxIDE0Ljc0MSAzMS42MTkgMjYuNTk5IDY5LjMyNiAyNi41OTlzNjguNDE1LTExLjg1OCA2OS4zMjYtMjYuNTk5aDAuMDI5NXYtMC41MDA3N2M5LjVlLTQgLTAuMDU4NyAwLTAuMTE3OTQgMC0wLjE3Njc0czkuNGUtNCAtMC4xMTgwMyAwLTAuMTc2NzR2LTQxLjkwMnoiLz4mI3hhOyAgPHBhdGggZmlsbD0idXJsKCNiKSIgZD0ibTQ3NS43MSA2MDIuNzJjMCAxNC4zOTktNjUuODc4IDI2LjA3MS0xNDcuMTQgMjYuMDcxcy0xNDcuMTQtMTEuNjczLTE0Ny4xNC0yNi4wNzEgNjUuODc4LTI2LjA3MSAxNDcuMTQtMjYuMDcxIDE0Ny4xNCAxMS42NzMgMTQ3LjE0IDI2LjA3MXoiIHRyYW5zZm9ybT0ibWF0cml4KC40NzEzMSAwIDAgMS4wNDU5IC01MS45IC00ODQuNTgpIi8+JiN4YTsgIDxwYXRoIGZpbGw9InVybCgjZikiIGQ9Im00NzUuNzEgNjAyLjcyYzAgMTQuMzk5LTY1Ljg3OCAyNi4wNzEtMTQ3LjE0IDI2LjA3MXMtMTQ3LjE0LTExLjY3My0xNDcuMTQtMjYuMDcxIDY1Ljg3OC0yNi4wNzEgMTQ3LjE0LTI2LjA3MSAxNDcuMTQgMTEuNjczIDE0Ny4xNCAyNi4wNzF6IiB0cmFuc2Zvcm09Im1hdHJpeCguNDYyODEgMCAwIDEuMDI3MSAtNDguNzUyIC00NzUuMTMpIi8+JiN4YTsgPC9nPiYjeGE7PC9zdmc+;" vertex="1" parent="1">
          <mxGeometry x="642.37" y="230" width="49.48" height="60" as="geometry" />
        </mxCell>
        <mxCell id="AhOyB6xF3FRpd3r5ZhqJ-3" value="" style="endArrow=classic;html=1;rounded=0;sketch=1;curveFitting=1;jiggle=2;" edge="1" parent="1">
          <mxGeometry width="50" height="50" relative="1" as="geometry">
            <mxPoint x="490" y="365" as="sourcePoint" />
            <mxPoint x="640" y="365" as="targetPoint" />
          </mxGeometry>
        </mxCell>
        <mxCell id="AhOyB6xF3FRpd3r5ZhqJ-4" value="&lt;font style=&quot;font-size: 16px;&quot; face=&quot;Comic Sans MS&quot;&gt;Checking &lt;br&gt;if the user&lt;br&gt;exists...&lt;/font&gt;" style="ellipse;shape=cloud;whiteSpace=wrap;html=1;sketch=1;curveFitting=1;jiggle=2;fillColor=#dae8fc;strokeColor=#6c8ebf;" vertex="1" parent="1">
          <mxGeometry x="500" y="240" width="150" height="110" as="geometry" />
        </mxCell>
        <mxCell id="AhOyB6xF3FRpd3r5ZhqJ-5" value="&lt;font face=&quot;Comic Sans MS&quot; style=&quot;font-size: 16px;&quot;&gt;API&lt;/font&gt;" style="rounded=0;whiteSpace=wrap;html=1;sketch=1;curveFitting=1;jiggle=2;" vertex="1" parent="1">
          <mxGeometry x="647.11" y="350" width="40" height="30" as="geometry" />
        </mxCell>
        <mxCell id="AhOyB6xF3FRpd3r5ZhqJ-6" value="" style="endArrow=classic;html=1;rounded=0;sketch=1;curveFitting=1;jiggle=2;" edge="1" parent="1">
          <mxGeometry width="50" height="50" relative="1" as="geometry">
            <mxPoint x="666.81" y="340" as="sourcePoint" />
            <mxPoint x="666.81" y="300" as="targetPoint" />
          </mxGeometry>
        </mxCell>
        <mxCell id="AhOyB6xF3FRpd3r5ZhqJ-7" value="&lt;font style=&quot;font-size: 16px;&quot;&gt;EXISTS&lt;/font&gt;" style="ellipse;shape=cloud;whiteSpace=wrap;html=1;sketch=1;curveFitting=1;jiggle=2;fillColor=#d5e8d4;strokeColor=#82b366;" vertex="1" parent="1">
          <mxGeometry x="700" y="290" width="90" height="50" as="geometry" />
        </mxCell>
        <mxCell id="AhOyB6xF3FRpd3r5ZhqJ-8" value="" style="endArrow=classic;html=1;rounded=0;sketch=1;curveFitting=1;jiggle=2;" edge="1" parent="1">
          <mxGeometry width="50" height="50" relative="1" as="geometry">
            <mxPoint x="695.98" y="364.75" as="sourcePoint" />
            <mxPoint x="780" y="360" as="targetPoint" />
          </mxGeometry>
        </mxCell>
        <mxCell id="AhOyB6xF3FRpd3r5ZhqJ-9" value="&lt;font style=&quot;font-size: 16px;&quot; face=&quot;Comic Sans MS&quot;&gt;FORGOT&lt;br&gt;PASSWORD&lt;br&gt;&lt;/font&gt;" style="ellipse;shape=cloud;whiteSpace=wrap;html=1;sketch=1;curveFitting=1;jiggle=2;fillColor=#f8cecc;strokeColor=#b85450;fontStyle=1" vertex="1" parent="1">
          <mxGeometry x="317.11" y="200" width="180" height="110" as="geometry" />
        </mxCell>
        <mxCell id="AhOyB6xF3FRpd3r5ZhqJ-10" value="" style="endArrow=classic;html=1;rounded=0;sketch=1;curveFitting=1;jiggle=2;" edge="1" parent="1">
          <mxGeometry width="50" height="50" relative="1" as="geometry">
            <mxPoint x="410" y="310" as="sourcePoint" />
            <mxPoint x="410" y="340" as="targetPoint" />
          </mxGeometry>
        </mxCell>
        <mxCell id="AhOyB6xF3FRpd3r5ZhqJ-11" value="&lt;font face=&quot;Comic Sans MS&quot;&gt;&lt;span style=&quot;font-size: 16px;&quot;&gt;Generate unique&lt;br&gt;access key&lt;br&gt;&lt;/span&gt;&lt;/font&gt;" style="rounded=0;whiteSpace=wrap;html=1;sketch=1;curveFitting=1;jiggle=2;" vertex="1" parent="1">
          <mxGeometry x="790" y="330" width="160" height="55" as="geometry" />
        </mxCell>
        <mxCell id="AhOyB6xF3FRpd3r5ZhqJ-14" value="" style="endArrow=classic;html=1;rounded=0;sketch=1;curveFitting=1;jiggle=2;entryX=0.5;entryY=1;entryDx=0;entryDy=0;" edge="1" parent="1" target="AhOyB6xF3FRpd3r5ZhqJ-15">
          <mxGeometry width="50" height="50" relative="1" as="geometry">
            <mxPoint x="869.66" y="325" as="sourcePoint" />
            <mxPoint x="869.66" y="285" as="targetPoint" />
          </mxGeometry>
        </mxCell>
        <mxCell id="AhOyB6xF3FRpd3r5ZhqJ-15" value="" style="shape=image;verticalLabelPosition=bottom;labelBackgroundColor=default;verticalAlign=top;aspect=fixed;imageAspect=0;image=data:image/svg+xml,PHN2ZyB4bWxuczp4bGluaz0iaHR0cDovL3d3dy53My5vcmcvMTk5OS94bGluayIgeG1sbnM9Imh0dHA6Ly93d3cudzMub3JnLzIwMDAvc3ZnIiB2aWV3Qm94PSIwIDAgMTc0LjM4NCAyMTAuNTYxODEiPiYjeGE7IDxkZWZzPiYjeGE7ICA8bGluZWFyR3JhZGllbnQgaWQ9ImQiPiYjeGE7ICAgPHN0b3Agb2Zmc2V0PSIwIiBzdG9wLWNvbG9yPSIjMWI0YTc4Ii8+JiN4YTsgICA8c3RvcCBvZmZzZXQ9IjEiIHN0b3AtY29sb3I9IiM1ZGFjZDEiLz4mI3hhOyAgPC9saW5lYXJHcmFkaWVudD4mI3hhOyAgPGxpbmVhckdyYWRpZW50IGdyYWRpZW50VW5pdHM9InVzZXJTcGFjZU9uVXNlIiB5Mj0iNTkyLjgyIiB5MT0iNjI4Ljc5IiB4Mj0iNTQwLjEyIiB4MT0iMjU5LjYxIiBpZD0iYiI+JiN4YTsgICA8c3RvcCBvZmZzZXQ9IjAiIHN0b3AtY29sb3I9IiM0MzhhYjkiLz4mI3hhOyAgIDxzdG9wIG9mZnNldD0iMSIgc3RvcC1jb2xvcj0iIzM5NzY5ZSIvPiYjeGE7ICA8L2xpbmVhckdyYWRpZW50PiYjeGE7ICA8bGluZWFyR3JhZGllbnQgZ3JhZGllbnRVbml0cz0idXNlclNwYWNlT25Vc2UiIHkyPSI1OTIuODIiIHkxPSI2MjguNzkiIHgyPSI1NDAuMTIiIHgxPSIyNTkuNjEiIGlkPSJhIj4mI3hhOyAgIDxzdG9wIG9mZnNldD0iMCIgc3RvcC1jb2xvcj0iIzFjNDc2NCIvPiYjeGE7ICAgPHN0b3Agb2Zmc2V0PSIxIiBzdG9wLWNvbG9yPSIjMzk3NjllIi8+JiN4YTsgIDwvbGluZWFyR3JhZGllbnQ+JiN4YTsgIDxsaW5lYXJHcmFkaWVudCBncmFkaWVudFVuaXRzPSJ1c2VyU3BhY2VPblVzZSIgeTI9IjYxOS40MSIgeTE9IjYwMi43MiIgeDI9IjUxMi43NiIgeDE9IjI1Ni42NCIgaWQ9ImYiPiYjeGE7ICAgPHN0b3Agb2Zmc2V0PSIwIiBzdG9wLWNvbG9yPSIjNTI5NWMwIi8+JiN4YTsgICA8c3RvcCBvZmZzZXQ9IjEiIHN0b3AtY29sb3I9IiM1ZjlkYzUiLz4mI3hhOyAgPC9saW5lYXJHcmFkaWVudD4mI3hhOyAgPGxpbmVhckdyYWRpZW50IHhsaW5rOmhyZWY9IiNkIiBncmFkaWVudFVuaXRzPSJ1c2VyU3BhY2VPblVzZSIgeDI9IjE3My4yMSIgeDE9IjM0LjUxNyIgaWQ9ImMiLz4mI3hhOyAgPGxpbmVhckdyYWRpZW50IHhsaW5rOmhyZWY9IiNkIiBncmFkaWVudFVuaXRzPSJ1c2VyU3BhY2VPblVzZSIgeDI9IjE3Mi4yOCIgeDE9IjMzLjU4MiIgaWQ9ImciLz4mI3hhOyAgPHJhZGlhbEdyYWRpZW50IGdyYWRpZW50VW5pdHM9InVzZXJTcGFjZU9uVXNlIiBncmFkaWVudFRyYW5zZm9ybT0ibWF0cml4KDEgMCAwIC4xNzcxOCAwIDQ5NS45MykiIHI9IjE0Ny4xNCIgY3k9IjYwMi43MiIgY3g9IjMyOC41NyIgaWQ9ImUiPiYjeGE7ICAgPHN0b3Agb2Zmc2V0PSIwIiBzdG9wLWNvbG9yPSIjNDg0ODQ5Ii8+JiN4YTsgICA8c3RvcCBvZmZzZXQ9IjAiIHN0b3AtY29sb3I9IiM0MzQzNDQiLz4mI3hhOyAgIDxzdG9wIG9mZnNldD0iMSIgc3RvcC1vcGFjaXR5PSIwIiBzdG9wLWNvbG9yPSIjOGY4ZjkwIi8+JiN4YTsgIDwvcmFkaWFsR3JhZGllbnQ+JiN4YTsgPC9kZWZzPiYjeGE7IDxwYXRoIGZpbGw9InVybCgjZSkiIGQ9Im00NzUuNzEgNjAyLjcyYzAgMTQuMzk5LTY1Ljg3OCAyNi4wNzEtMTQ3LjE0IDI2LjA3MXMtMTQ3LjE0LTExLjY3My0xNDcuMTQtMjYuMDcxIDY1Ljg3OC0yNi4wNzEgMTQ3LjE0LTI2LjA3MSAxNDcuMTQgMTEuNjczIDE0Ny4xNCAyNi4wNzF6IiB0cmFuc2Zvcm09Im1hdHJpeCguNTkyNTcgMCAwIDEuMDQ1OSAtMTA3LjUxIC00NDcuMSkiLz4mI3hhOyA8ZyB0cmFuc2Zvcm09InRyYW5zbGF0ZSgtMTMuMDY1IC0xMDUuNDUpIj4mI3hhOyAgPHBhdGggZmlsbD0idXJsKCNhKSIgZD0ibTQ3NS43MSA2MDIuNzJjMCAxNC4zOTktNjUuODc4IDI2LjA3MS0xNDcuMTQgMjYuMDcxcy0xNDcuMTQtMTEuNjczLTE0Ny4xNC0yNi4wNzEgNjUuODc4LTI2LjA3MSAxNDcuMTQtMjYuMDcxIDE0Ny4xNCAxMS42NzMgMTQ3LjE0IDI2LjA3MXoiIHRyYW5zZm9ybT0ibWF0cml4KC40NzEzMSAwIDAgMS4wNDU5IC01MC45ODUgLTM2MS4zOCkiLz4mI3hhOyAgPHBhdGggZmlsbD0idXJsKCNjKSIgZD0ibTM0LjUzNSAyMjQuMnYwLjI5NDU3YzZlLTMgLTAuMDk3NSAwLjAyMDYtMC4xOTcyOSAwLjAyOTUtMC4yOTQ1N2gtMC4wMjk1em0xMzguNjIgMGMwLjAzMDIgMC4zMzA0NCAwLjA1ODkgMC42NjgyMSAwLjA1ODkgMS4wMDE1di0xLjAwMTVoLTAuMDU4OXptMC4wNTg5IDEuMDAxNWMtMWUtNSAxNS4wNTItMzEuMDc1IDI3LjI2Mi02OS4zNTYgMjcuMjYyLTM3LjY4MyAxZS01IC02OC4zNzYtMTEuODI4LTY5LjMyNi0yNi41NTV2NDAuNjhjLTAuMDE1MSAwLjIzMzc2LTAuMDE0NyAwLjQ1NzA0LTAuMDE0NyAwLjY5MjIzIDAgMC4yMjU0NiA4LjdlLTQgMC40NTMzNSAwLjAxNDcgMC42Nzc1MSAwLjkxMTUxIDE0Ljc0MSAzMS42MTkgMjYuNTk5IDY5LjMyNiAyNi41OTlzNjguNDE1LTExLjg1OCA2OS4zMjYtMjYuNTk5aDAuMDI5NXYtMC41MDA3N2M5LjVlLTQgLTAuMDU4NyAwLTAuMTE3OTQgMC0wLjE3Njc0czkuNGUtNCAtMC4xMTgwMyAwLTAuMTc2NzR2LTQxLjkwMnoiLz4mI3hhOyAgPHBhdGggZmlsbD0idXJsKCNiKSIgZD0ibTQ3NS43MSA2MDIuNzJjMCAxNC4zOTktNjUuODc4IDI2LjA3MS0xNDcuMTQgMjYuMDcxcy0xNDcuMTQtMTEuNjczLTE0Ny4xNC0yNi4wNzEgNjUuODc4LTI2LjA3MSAxNDcuMTQtMjYuMDcxIDE0Ny4xNCAxMS42NzMgMTQ3LjE0IDI2LjA3MXoiIHRyYW5zZm9ybT0ibWF0cml4KC40NzEzMSAwIDAgMS4wNDU5IC01MC45NjUgLTQwNS4wMikiLz4mI3hhOyA8L2c+JiN4YTsgPGcgdHJhbnNmb3JtPSJ0cmFuc2xhdGUoLTEyLjkzNiAtMTUwLjk2KSI+JiN4YTsgIDxwYXRoIGZpbGw9InVybCgjYSkiIGQ9Im00NzUuNzEgNjAyLjcyYzAgMTQuMzk5LTY1Ljg3OCAyNi4wNzEtMTQ3LjE0IDI2LjA3MXMtMTQ3LjE0LTExLjY3My0xNDcuMTQtMjYuMDcxIDY1Ljg3OC0yNi4wNzEgMTQ3LjE0LTI2LjA3MSAxNDcuMTQgMTEuNjczIDE0Ny4xNCAyNi4wNzF6IiB0cmFuc2Zvcm09Im1hdHJpeCguNDcxMzEgMCAwIDEuMDQ1OSAtNTAuOTg1IC0zNjEuMzgpIi8+JiN4YTsgIDxwYXRoIGZpbGw9InVybCgjYykiIGQ9Im0zNC41MzUgMjI0LjJ2MC4yOTQ1N2M2ZS0zIC0wLjA5NzUgMC4wMjA2LTAuMTk3MjkgMC4wMjk1LTAuMjk0NTdoLTAuMDI5NXptMTM4LjYyIDBjMC4wMzAyIDAuMzMwNDQgMC4wNTg5IDAuNjY4MjEgMC4wNTg5IDEuMDAxNXYtMS4wMDE1aC0wLjA1ODl6bTAuMDU4OSAxLjAwMTVjLTFlLTUgMTUuMDUyLTMxLjA3NSAyNy4yNjItNjkuMzU2IDI3LjI2Mi0zNy42ODMgMWUtNSAtNjguMzc2LTExLjgyOC02OS4zMjYtMjYuNTU1djQwLjY4Yy0wLjAxNTEgMC4yMzM3Ni0wLjAxNDcgMC40NTcwNC0wLjAxNDcgMC42OTIyMyAwIDAuMjI1NDYgOC43ZS00IDAuNDUzMzUgMC4wMTQ3IDAuNjc3NTEgMC45MTE1MSAxNC43NDEgMzEuNjE5IDI2LjU5OSA2OS4zMjYgMjYuNTk5czY4LjQxNS0xMS44NTggNjkuMzI2LTI2LjU5OWgwLjAyOTV2LTAuNTAwNzdjOS41ZS00IC0wLjA1ODcgMC0wLjExNzk0IDAtMC4xNzY3NHM5LjRlLTQgLTAuMTE4MDMgMC0wLjE3Njc0di00MS45MDJ6Ii8+JiN4YTsgIDxwYXRoIGZpbGw9InVybCgjYikiIGQ9Im00NzUuNzEgNjAyLjcyYzAgMTQuMzk5LTY1Ljg3OCAyNi4wNzEtMTQ3LjE0IDI2LjA3MXMtMTQ3LjE0LTExLjY3My0xNDcuMTQtMjYuMDcxIDY1Ljg3OC0yNi4wNzEgMTQ3LjE0LTI2LjA3MSAxNDcuMTQgMTEuNjczIDE0Ny4xNCAyNi4wNzF6IiB0cmFuc2Zvcm09Im1hdHJpeCguNDcxMzEgMCAwIDEuMDQ1OSAtNTAuOTY1IC00MDUuMDIpIi8+JiN4YTsgPC9nPiYjeGE7IDxnIHRyYW5zZm9ybT0idHJhbnNsYXRlKC0xMi4xODQgLTExNy4xMykiPiYjeGE7ICA8cGF0aCBmaWxsPSJ1cmwoI2EpIiBkPSJtNDc1LjcxIDYwMi43MmMwIDE0LjM5OS02NS44NzggMjYuMDcxLTE0Ny4xNCAyNi4wNzFzLTE0Ny4xNC0xMS42NzMtMTQ3LjE0LTI2LjA3MSA2NS44NzgtMjYuMDcxIDE0Ny4xNC0yNi4wNzEgMTQ3LjE0IDExLjY3MyAxNDcuMTQgMjYuMDcxeiIgdHJhbnNmb3JtPSJtYXRyaXgoLjQ3MTMxIDAgMCAxLjA0NTkgLTUxLjkyMSAtNDQwLjk0KSIvPiYjeGE7ICA8cGF0aCBmaWxsPSJ1cmwoI2cpIiBkPSJtMzMuNTk5IDE0NC42NHYwLjI5NDU3YzZlLTMgLTAuMDk3NSAwLjAyMDYtMC4xOTcyOSAwLjAyOTUtMC4yOTQ1N2gtMC4wMjk1em0xMzguNjIgMGMwLjAzMDIgMC4zMzA0NCAwLjA1ODkgMC42NjgyMSAwLjA1ODkgMS4wMDE1di0xLjAwMTVoLTAuMDU4OXptMC4wNTg5IDEuMDAxNWMtMWUtNSAxNS4wNTItMzEuMDc1IDI3LjI2Mi02OS4zNTYgMjcuMjYyLTM3LjY4MyAxZS01IC02OC4zNzYtMTEuODI4LTY5LjMyNi0yNi41NTV2NDAuNjhjLTAuMDE1MSAwLjIzMzc2LTAuMDE0NyAwLjQ1NzA0LTAuMDE0NyAwLjY5MjIzIDAgMC4yMjU0NiA4LjdlLTQgMC40NTMzNSAwLjAxNDcgMC42Nzc1MSAwLjkxMTUxIDE0Ljc0MSAzMS42MTkgMjYuNTk5IDY5LjMyNiAyNi41OTlzNjguNDE1LTExLjg1OCA2OS4zMjYtMjYuNTk5aDAuMDI5NXYtMC41MDA3N2M5LjVlLTQgLTAuMDU4NyAwLTAuMTE3OTQgMC0wLjE3Njc0czkuNGUtNCAtMC4xMTgwMyAwLTAuMTc2NzR2LTQxLjkwMnoiLz4mI3hhOyAgPHBhdGggZmlsbD0idXJsKCNiKSIgZD0ibTQ3NS43MSA2MDIuNzJjMCAxNC4zOTktNjUuODc4IDI2LjA3MS0xNDcuMTQgMjYuMDcxcy0xNDcuMTQtMTEuNjczLTE0Ny4xNC0yNi4wNzEgNjUuODc4LTI2LjA3MSAxNDcuMTQtMjYuMDcxIDE0Ny4xNCAxMS42NzMgMTQ3LjE0IDI2LjA3MXoiIHRyYW5zZm9ybT0ibWF0cml4KC40NzEzMSAwIDAgMS4wNDU5IC01MS45IC00ODQuNTgpIi8+JiN4YTsgIDxwYXRoIGZpbGw9InVybCgjZikiIGQ9Im00NzUuNzEgNjAyLjcyYzAgMTQuMzk5LTY1Ljg3OCAyNi4wNzEtMTQ3LjE0IDI2LjA3MXMtMTQ3LjE0LTExLjY3My0xNDcuMTQtMjYuMDcxIDY1Ljg3OC0yNi4wNzEgMTQ3LjE0LTI2LjA3MSAxNDcuMTQgMTEuNjczIDE0Ny4xNCAyNi4wNzF6IiB0cmFuc2Zvcm09Im1hdHJpeCguNDYyODEgMCAwIDEuMDI3MSAtNDguNzUyIC00NzUuMTMpIi8+JiN4YTsgPC9nPiYjeGE7PC9zdmc+;" vertex="1" parent="1">
          <mxGeometry x="845.26" y="200" width="49.48" height="60" as="geometry" />
        </mxCell>
        <mxCell id="AhOyB6xF3FRpd3r5ZhqJ-16" value="&lt;font face=&quot;Comic Sans MS&quot;&gt;&lt;span style=&quot;font-size: 16px;&quot;&gt;Hash &amp;amp;&lt;br&gt;store in DB&lt;br&gt;with user _id data&lt;br&gt;&lt;/span&gt;&lt;/font&gt;" style="ellipse;shape=cloud;whiteSpace=wrap;html=1;sketch=1;curveFitting=1;jiggle=2;fillColor=#dae8fc;strokeColor=#6c8ebf;" vertex="1" parent="1">
          <mxGeometry x="880" y="210" width="170" height="120" as="geometry" />
        </mxCell>
        <mxCell id="AhOyB6xF3FRpd3r5ZhqJ-18" value="&lt;font face=&quot;Comic Sans MS&quot;&gt;&lt;span style=&quot;font-size: 16px;&quot;&gt;Access key gets&lt;br&gt;&lt;/span&gt;&lt;/font&gt;&lt;font face=&quot;Comic Sans MS&quot; style=&quot;font-size: 16px;&quot;&gt;removed after 15 min.&lt;/font&gt;" style="ellipse;shape=cloud;whiteSpace=wrap;html=1;sketch=1;curveFitting=1;jiggle=2;fillColor=#dae8fc;strokeColor=#6c8ebf;" vertex="1" parent="1">
          <mxGeometry x="747.5" y="80" width="245" height="110" as="geometry" />
        </mxCell>
        <mxCell id="AhOyB6xF3FRpd3r5ZhqJ-19" value="" style="shape=image;verticalLabelPosition=bottom;labelBackgroundColor=default;verticalAlign=top;aspect=fixed;imageAspect=0;image=data:image/svg+xml,PHN2ZyB4bWxucz0iaHR0cDovL3d3dy53My5vcmcvMjAwMC9zdmciIHZpZXdCb3g9IjAgMCA0MDAgNDAwIj4mI3hhOyA8ZGVmcz4mI3hhOyAgPGZpbHRlciBpZD0iYSI+JiN4YTsgICA8ZmVHYXVzc2lhbkJsdXIgc3RkRGV2aWF0aW9uPSI1LjA5MjQ3OSIvPiYjeGE7ICA8L2ZpbHRlcj4mI3hhOyA8L2RlZnM+JiN4YTsgPGcgc3Ryb2tlLWxpbmVqb2luPSJyb3VuZCIgc3Ryb2tlLWxpbmVjYXA9InJvdW5kIj4mI3hhOyAgPGcgZmlsbD0iI2YwMCI+JiN4YTsgICA8cGF0aCBzdHJva2Utd2lkdGg9IjciIHN0cm9rZT0iI2ZmZiIgZD0ibTIwMi4zOCAzMy40OTRjLTEgMC03Ljk3IDIuNTQ2Ni0xMC4wNzcgNi4xOTMzbC0xNjcuNiAyOTEuNTRjLTIuMjIxNSAzLjg2NS0yLjIyODUgOC42MzEtMC4wMTgzNzIgMTIuNTAzczYuMzAxNCA2LjI2IDEwLjczMiA2LjI2NmwzMzQuMjMgMC41MjljNC40MzMgMC4wMTMgOS41MzYtMi4zNiAxMC43NjItNi4yMjRzMi4yMzYtOC42MzMgMC4wMjY5NzgtMTIuNTA3bC0xNjYuNjctMjkyLjA3Yy0yLjMzMi00LjA3LTYuNzMyLTYuNDc3My0xMS4zODgtNi4yMzEgMCAwIDEgMCAwIDB6bTAuNTk5IDM3LjQ2MmwxNDUuMjQgMjU0LjUzLTI5MS4zLTAuNDUzIDE0Ni4wNi0yNTQuMDd6Ii8+JiN4YTsgICA8cGF0aCBzdHJva2Utd2lkdGg9IjAiIGQ9Im0zNjkuNjggMzQxLjA0bC0zMzQuMjUtMC41Mzk1IDE2Ny41OS0yOTEuNTQgMTY2LjY2IDI5Mi4wOHoiLz4mI3hhOyAgPC9nPiYjeGE7ICA8cGF0aCBzdHJva2Utd2lkdGg9IjMiIGZpbGw9IiNmZmYiIGQ9Im0yMDIuNDUgMTEwLjc2Yy0yLjU4MyAwLjEzNy00LjkyNSAxLjU5OS02LjIyNyAzLjg5bC0xMDMuNTggMTgzLjFjLTEuMzcyOCAyLjQyNy0xLjM3NzIgNS40Mi0wLjAxMTM5OCA3Ljg1MiAxLjM2NTggMi40MzEgMy44OTQyIDMuOTMyIDYuNjMyNiAzLjkzNWwyMDYuNTUgMC4zMzJjMi43MzkgMC4wMDkwMDMgNS4yNzUtMS40ODEgNi42NTEtMy45MDkgMS4zNzUtMi40MjcgMS4zODItNS40MjEgMC4wMTYwMjItNy44NTVsLTEwMy0xODMuNDNjLTEuNDQxLTIuNTU2LTQuMTYtNC4wNjgtNy4wMzgtMy45MTN6Ii8+JiN4YTsgPC9nPiYjeGE7IDxwYXRoIHN0cm9rZS13aWR0aD0iMiIgZD0ibTIwNC41NSAyNDYuNzJoLTMuOTcyNWMtMC40MTA5Ni04LjI2MS0xLjc4MDgtMTguMTUyLTQuMTA5NS0yOS42NzVsLTQuNzI2LTIzLjQ3OWMtMi44MzEtMTQuMDc2LTQuMjQ2NS0yNC4xNTgtNC4yNDY1LTMwLjI0NS0xLjVlLTUgLTEyLjI4MyA0Ljk5OTktMTguNDI0IDE1LTE4LjQyNCA0LjM4MzQgMS41M2UtNCA4LjAwMjEgMS42OTg2IDEwLjg1NiA1LjA5NTIgMi44NTM4IDMuMzk3IDQuMjgwNyA3LjczMTMgNC4yODA4IDEzLjAwMy0zLjFlLTUgNS41OTgxLTEuNTA2OCAxNS43ODgtNC41MjA1IDMwLjU3MWwtNC43OTQ0IDIzLjQ3OWMtMS42ODk1IDguMjYxMS0yLjk0NTIgMTguMTUzLTMuNzY3MSAyOS42NzV6bS0xLjg0OTMgMTUuNDA4YzQuNjU3NCA2LjFlLTUgOC4yNjQ2IDEuODYxNSAxMC44MjIgNS41ODQ0IDIuNTU3IDMuNzIzIDMuODM1NSA3LjcwNCAzLjgzNTUgMTEuOTQzLTMuMWUtNSA1LjU5OC0xLjU1MjUgOS45MDUxLTQuNjU3NSAxMi45MjItMy4xMDUgMy4wMTY0LTYuNDM4MiA0LjUyNDUtOS45OTk4IDQuNTI0NS00LjcwMzIgMC04LjMyMTgtMS44NDc4LTEwLjg1Ni01LjU0MzYtMi41MzQyLTMuNjk1Ny0zLjgwMTMtNy42NjMyLTMuODAxMy0xMS45MDItMy4xZS01IC00Ljk0NTcgMS40MDQxLTkuMTAzNCA0LjIxMjItMTIuNDczczYuMjg5OC01LjA1NDQgMTAuNDQ1LTUuMDU0NXoiLz4mI3hhOzwvc3ZnPg==;" vertex="1" parent="1">
          <mxGeometry x="854.74" y="80" width="40" height="40" as="geometry" />
        </mxCell>
        <mxCell id="AhOyB6xF3FRpd3r5ZhqJ-20" value="" style="endArrow=classic;html=1;rounded=0;sketch=1;curveFitting=1;jiggle=2;" edge="1" parent="1">
          <mxGeometry width="50" height="50" relative="1" as="geometry">
            <mxPoint x="950" y="354.75" as="sourcePoint" />
            <mxPoint x="1034.02" y="350" as="targetPoint" />
          </mxGeometry>
        </mxCell>
        <mxCell id="AhOyB6xF3FRpd3r5ZhqJ-21" value="&lt;font face=&quot;Comic Sans MS&quot;&gt;&lt;span style=&quot;font-size: 16px;&quot;&gt;Send link to&lt;br&gt;&amp;nbsp;user email&lt;br&gt;&lt;/span&gt;&lt;/font&gt;" style="rounded=0;whiteSpace=wrap;html=1;sketch=1;curveFitting=1;jiggle=2;" vertex="1" parent="1">
          <mxGeometry x="1050" y="330" width="110" height="55" as="geometry" />
        </mxCell>
        <mxCell id="AhOyB6xF3FRpd3r5ZhqJ-47" value="" style="edgeStyle=orthogonalEdgeStyle;rounded=0;orthogonalLoop=1;jettySize=auto;html=1;sketch=1;curveFitting=1;jiggle=2;" edge="1" parent="1" source="AhOyB6xF3FRpd3r5ZhqJ-22" target="AhOyB6xF3FRpd3r5ZhqJ-42">
          <mxGeometry relative="1" as="geometry" />
        </mxCell>
        <mxCell id="AhOyB6xF3FRpd3r5ZhqJ-22" value="&lt;font face=&quot;Comic Sans MS&quot;&gt;&lt;span style=&quot;font-size: 16px;&quot;&gt;Clicked &lt;br&gt;on link?&lt;br&gt;&lt;/span&gt;&lt;/font&gt;" style="ellipse;shape=cloud;whiteSpace=wrap;html=1;sketch=1;curveFitting=1;jiggle=2;fillColor=#dae8fc;strokeColor=#6c8ebf;" vertex="1" parent="1">
          <mxGeometry x="1150" y="255" width="120" height="80" as="geometry" />
        </mxCell>
        <mxCell id="AhOyB6xF3FRpd3r5ZhqJ-23" value="" style="endArrow=classic;html=1;rounded=0;sketch=1;curveFitting=1;jiggle=2;" edge="1" parent="1">
          <mxGeometry width="50" height="50" relative="1" as="geometry">
            <mxPoint x="1160" y="359.88" as="sourcePoint" />
            <mxPoint x="1240" y="355" as="targetPoint" />
          </mxGeometry>
        </mxCell>
        <mxCell id="AhOyB6xF3FRpd3r5ZhqJ-24" value="&lt;font face=&quot;Comic Sans MS&quot;&gt;&lt;span style=&quot;font-size: 16px;&quot;&gt;Provide new&lt;br&gt;credentials&lt;br&gt;&lt;/span&gt;&lt;/font&gt;" style="rounded=0;whiteSpace=wrap;html=1;sketch=1;curveFitting=1;jiggle=2;" vertex="1" parent="1">
          <mxGeometry x="1250" y="330" width="110" height="55" as="geometry" />
        </mxCell>
        <mxCell id="AhOyB6xF3FRpd3r5ZhqJ-30" value="" style="edgeStyle=orthogonalEdgeStyle;rounded=0;orthogonalLoop=1;jettySize=auto;html=1;sketch=1;curveFitting=1;jiggle=2;" edge="1" parent="1" source="AhOyB6xF3FRpd3r5ZhqJ-25" target="AhOyB6xF3FRpd3r5ZhqJ-26">
          <mxGeometry relative="1" as="geometry" />
        </mxCell>
        <mxCell id="AhOyB6xF3FRpd3r5ZhqJ-25" value="&lt;font face=&quot;Comic Sans MS&quot; style=&quot;font-size: 16px;&quot;&gt;API&lt;/font&gt;" style="rounded=0;whiteSpace=wrap;html=1;sketch=1;curveFitting=1;jiggle=2;" vertex="1" parent="1">
          <mxGeometry x="1030" y="426.25" width="40" height="30" as="geometry" />
        </mxCell>
        <mxCell id="AhOyB6xF3FRpd3r5ZhqJ-26" value="" style="shape=image;verticalLabelPosition=bottom;labelBackgroundColor=default;verticalAlign=top;aspect=fixed;imageAspect=0;image=data:image/svg+xml,PHN2ZyB4bWxuczp4bGluaz0iaHR0cDovL3d3dy53My5vcmcvMTk5OS94bGluayIgeG1sbnM9Imh0dHA6Ly93d3cudzMub3JnLzIwMDAvc3ZnIiB2aWV3Qm94PSIwIDAgMTc0LjM4NCAyMTAuNTYxODEiPiYjeGE7IDxkZWZzPiYjeGE7ICA8bGluZWFyR3JhZGllbnQgaWQ9ImQiPiYjeGE7ICAgPHN0b3Agb2Zmc2V0PSIwIiBzdG9wLWNvbG9yPSIjMWI0YTc4Ii8+JiN4YTsgICA8c3RvcCBvZmZzZXQ9IjEiIHN0b3AtY29sb3I9IiM1ZGFjZDEiLz4mI3hhOyAgPC9saW5lYXJHcmFkaWVudD4mI3hhOyAgPGxpbmVhckdyYWRpZW50IGdyYWRpZW50VW5pdHM9InVzZXJTcGFjZU9uVXNlIiB5Mj0iNTkyLjgyIiB5MT0iNjI4Ljc5IiB4Mj0iNTQwLjEyIiB4MT0iMjU5LjYxIiBpZD0iYiI+JiN4YTsgICA8c3RvcCBvZmZzZXQ9IjAiIHN0b3AtY29sb3I9IiM0MzhhYjkiLz4mI3hhOyAgIDxzdG9wIG9mZnNldD0iMSIgc3RvcC1jb2xvcj0iIzM5NzY5ZSIvPiYjeGE7ICA8L2xpbmVhckdyYWRpZW50PiYjeGE7ICA8bGluZWFyR3JhZGllbnQgZ3JhZGllbnRVbml0cz0idXNlclNwYWNlT25Vc2UiIHkyPSI1OTIuODIiIHkxPSI2MjguNzkiIHgyPSI1NDAuMTIiIHgxPSIyNTkuNjEiIGlkPSJhIj4mI3hhOyAgIDxzdG9wIG9mZnNldD0iMCIgc3RvcC1jb2xvcj0iIzFjNDc2NCIvPiYjeGE7ICAgPHN0b3Agb2Zmc2V0PSIxIiBzdG9wLWNvbG9yPSIjMzk3NjllIi8+JiN4YTsgIDwvbGluZWFyR3JhZGllbnQ+JiN4YTsgIDxsaW5lYXJHcmFkaWVudCBncmFkaWVudFVuaXRzPSJ1c2VyU3BhY2VPblVzZSIgeTI9IjYxOS40MSIgeTE9IjYwMi43MiIgeDI9IjUxMi43NiIgeDE9IjI1Ni42NCIgaWQ9ImYiPiYjeGE7ICAgPHN0b3Agb2Zmc2V0PSIwIiBzdG9wLWNvbG9yPSIjNTI5NWMwIi8+JiN4YTsgICA8c3RvcCBvZmZzZXQ9IjEiIHN0b3AtY29sb3I9IiM1ZjlkYzUiLz4mI3hhOyAgPC9saW5lYXJHcmFkaWVudD4mI3hhOyAgPGxpbmVhckdyYWRpZW50IHhsaW5rOmhyZWY9IiNkIiBncmFkaWVudFVuaXRzPSJ1c2VyU3BhY2VPblVzZSIgeDI9IjE3My4yMSIgeDE9IjM0LjUxNyIgaWQ9ImMiLz4mI3hhOyAgPGxpbmVhckdyYWRpZW50IHhsaW5rOmhyZWY9IiNkIiBncmFkaWVudFVuaXRzPSJ1c2VyU3BhY2VPblVzZSIgeDI9IjE3Mi4yOCIgeDE9IjMzLjU4MiIgaWQ9ImciLz4mI3hhOyAgPHJhZGlhbEdyYWRpZW50IGdyYWRpZW50VW5pdHM9InVzZXJTcGFjZU9uVXNlIiBncmFkaWVudFRyYW5zZm9ybT0ibWF0cml4KDEgMCAwIC4xNzcxOCAwIDQ5NS45MykiIHI9IjE0Ny4xNCIgY3k9IjYwMi43MiIgY3g9IjMyOC41NyIgaWQ9ImUiPiYjeGE7ICAgPHN0b3Agb2Zmc2V0PSIwIiBzdG9wLWNvbG9yPSIjNDg0ODQ5Ii8+JiN4YTsgICA8c3RvcCBvZmZzZXQ9IjAiIHN0b3AtY29sb3I9IiM0MzQzNDQiLz4mI3hhOyAgIDxzdG9wIG9mZnNldD0iMSIgc3RvcC1vcGFjaXR5PSIwIiBzdG9wLWNvbG9yPSIjOGY4ZjkwIi8+JiN4YTsgIDwvcmFkaWFsR3JhZGllbnQ+JiN4YTsgPC9kZWZzPiYjeGE7IDxwYXRoIGZpbGw9InVybCgjZSkiIGQ9Im00NzUuNzEgNjAyLjcyYzAgMTQuMzk5LTY1Ljg3OCAyNi4wNzEtMTQ3LjE0IDI2LjA3MXMtMTQ3LjE0LTExLjY3My0xNDcuMTQtMjYuMDcxIDY1Ljg3OC0yNi4wNzEgMTQ3LjE0LTI2LjA3MSAxNDcuMTQgMTEuNjczIDE0Ny4xNCAyNi4wNzF6IiB0cmFuc2Zvcm09Im1hdHJpeCguNTkyNTcgMCAwIDEuMDQ1OSAtMTA3LjUxIC00NDcuMSkiLz4mI3hhOyA8ZyB0cmFuc2Zvcm09InRyYW5zbGF0ZSgtMTMuMDY1IC0xMDUuNDUpIj4mI3hhOyAgPHBhdGggZmlsbD0idXJsKCNhKSIgZD0ibTQ3NS43MSA2MDIuNzJjMCAxNC4zOTktNjUuODc4IDI2LjA3MS0xNDcuMTQgMjYuMDcxcy0xNDcuMTQtMTEuNjczLTE0Ny4xNC0yNi4wNzEgNjUuODc4LTI2LjA3MSAxNDcuMTQtMjYuMDcxIDE0Ny4xNCAxMS42NzMgMTQ3LjE0IDI2LjA3MXoiIHRyYW5zZm9ybT0ibWF0cml4KC40NzEzMSAwIDAgMS4wNDU5IC01MC45ODUgLTM2MS4zOCkiLz4mI3hhOyAgPHBhdGggZmlsbD0idXJsKCNjKSIgZD0ibTM0LjUzNSAyMjQuMnYwLjI5NDU3YzZlLTMgLTAuMDk3NSAwLjAyMDYtMC4xOTcyOSAwLjAyOTUtMC4yOTQ1N2gtMC4wMjk1em0xMzguNjIgMGMwLjAzMDIgMC4zMzA0NCAwLjA1ODkgMC42NjgyMSAwLjA1ODkgMS4wMDE1di0xLjAwMTVoLTAuMDU4OXptMC4wNTg5IDEuMDAxNWMtMWUtNSAxNS4wNTItMzEuMDc1IDI3LjI2Mi02OS4zNTYgMjcuMjYyLTM3LjY4MyAxZS01IC02OC4zNzYtMTEuODI4LTY5LjMyNi0yNi41NTV2NDAuNjhjLTAuMDE1MSAwLjIzMzc2LTAuMDE0NyAwLjQ1NzA0LTAuMDE0NyAwLjY5MjIzIDAgMC4yMjU0NiA4LjdlLTQgMC40NTMzNSAwLjAxNDcgMC42Nzc1MSAwLjkxMTUxIDE0Ljc0MSAzMS42MTkgMjYuNTk5IDY5LjMyNiAyNi41OTlzNjguNDE1LTExLjg1OCA2OS4zMjYtMjYuNTk5aDAuMDI5NXYtMC41MDA3N2M5LjVlLTQgLTAuMDU4NyAwLTAuMTE3OTQgMC0wLjE3Njc0czkuNGUtNCAtMC4xMTgwMyAwLTAuMTc2NzR2LTQxLjkwMnoiLz4mI3hhOyAgPHBhdGggZmlsbD0idXJsKCNiKSIgZD0ibTQ3NS43MSA2MDIuNzJjMCAxNC4zOTktNjUuODc4IDI2LjA3MS0xNDcuMTQgMjYuMDcxcy0xNDcuMTQtMTEuNjczLTE0Ny4xNC0yNi4wNzEgNjUuODc4LTI2LjA3MSAxNDcuMTQtMjYuMDcxIDE0Ny4xNCAxMS42NzMgMTQ3LjE0IDI2LjA3MXoiIHRyYW5zZm9ybT0ibWF0cml4KC40NzEzMSAwIDAgMS4wNDU5IC01MC45NjUgLTQwNS4wMikiLz4mI3hhOyA8L2c+JiN4YTsgPGcgdHJhbnNmb3JtPSJ0cmFuc2xhdGUoLTEyLjkzNiAtMTUwLjk2KSI+JiN4YTsgIDxwYXRoIGZpbGw9InVybCgjYSkiIGQ9Im00NzUuNzEgNjAyLjcyYzAgMTQuMzk5LTY1Ljg3OCAyNi4wNzEtMTQ3LjE0IDI2LjA3MXMtMTQ3LjE0LTExLjY3My0xNDcuMTQtMjYuMDcxIDY1Ljg3OC0yNi4wNzEgMTQ3LjE0LTI2LjA3MSAxNDcuMTQgMTEuNjczIDE0Ny4xNCAyNi4wNzF6IiB0cmFuc2Zvcm09Im1hdHJpeCguNDcxMzEgMCAwIDEuMDQ1OSAtNTAuOTg1IC0zNjEuMzgpIi8+JiN4YTsgIDxwYXRoIGZpbGw9InVybCgjYykiIGQ9Im0zNC41MzUgMjI0LjJ2MC4yOTQ1N2M2ZS0zIC0wLjA5NzUgMC4wMjA2LTAuMTk3MjkgMC4wMjk1LTAuMjk0NTdoLTAuMDI5NXptMTM4LjYyIDBjMC4wMzAyIDAuMzMwNDQgMC4wNTg5IDAuNjY4MjEgMC4wNTg5IDEuMDAxNXYtMS4wMDE1aC0wLjA1ODl6bTAuMDU4OSAxLjAwMTVjLTFlLTUgMTUuMDUyLTMxLjA3NSAyNy4yNjItNjkuMzU2IDI3LjI2Mi0zNy42ODMgMWUtNSAtNjguMzc2LTExLjgyOC02OS4zMjYtMjYuNTU1djQwLjY4Yy0wLjAxNTEgMC4yMzM3Ni0wLjAxNDcgMC40NTcwNC0wLjAxNDcgMC42OTIyMyAwIDAuMjI1NDYgOC43ZS00IDAuNDUzMzUgMC4wMTQ3IDAuNjc3NTEgMC45MTE1MSAxNC43NDEgMzEuNjE5IDI2LjU5OSA2OS4zMjYgMjYuNTk5czY4LjQxNS0xMS44NTggNjkuMzI2LTI2LjU5OWgwLjAyOTV2LTAuNTAwNzdjOS41ZS00IC0wLjA1ODcgMC0wLjExNzk0IDAtMC4xNzY3NHM5LjRlLTQgLTAuMTE4MDMgMC0wLjE3Njc0di00MS45MDJ6Ii8+JiN4YTsgIDxwYXRoIGZpbGw9InVybCgjYikiIGQ9Im00NzUuNzEgNjAyLjcyYzAgMTQuMzk5LTY1Ljg3OCAyNi4wNzEtMTQ3LjE0IDI2LjA3MXMtMTQ3LjE0LTExLjY3My0xNDcuMTQtMjYuMDcxIDY1Ljg3OC0yNi4wNzEgMTQ3LjE0LTI2LjA3MSAxNDcuMTQgMTEuNjczIDE0Ny4xNCAyNi4wNzF6IiB0cmFuc2Zvcm09Im1hdHJpeCguNDcxMzEgMCAwIDEuMDQ1OSAtNTAuOTY1IC00MDUuMDIpIi8+JiN4YTsgPC9nPiYjeGE7IDxnIHRyYW5zZm9ybT0idHJhbnNsYXRlKC0xMi4xODQgLTExNy4xMykiPiYjeGE7ICA8cGF0aCBmaWxsPSJ1cmwoI2EpIiBkPSJtNDc1LjcxIDYwMi43MmMwIDE0LjM5OS02NS44NzggMjYuMDcxLTE0Ny4xNCAyNi4wNzFzLTE0Ny4xNC0xMS42NzMtMTQ3LjE0LTI2LjA3MSA2NS44NzgtMjYuMDcxIDE0Ny4xNC0yNi4wNzEgMTQ3LjE0IDExLjY3MyAxNDcuMTQgMjYuMDcxeiIgdHJhbnNmb3JtPSJtYXRyaXgoLjQ3MTMxIDAgMCAxLjA0NTkgLTUxLjkyMSAtNDQwLjk0KSIvPiYjeGE7ICA8cGF0aCBmaWxsPSJ1cmwoI2cpIiBkPSJtMzMuNTk5IDE0NC42NHYwLjI5NDU3YzZlLTMgLTAuMDk3NSAwLjAyMDYtMC4xOTcyOSAwLjAyOTUtMC4yOTQ1N2gtMC4wMjk1em0xMzguNjIgMGMwLjAzMDIgMC4zMzA0NCAwLjA1ODkgMC42NjgyMSAwLjA1ODkgMS4wMDE1di0xLjAwMTVoLTAuMDU4OXptMC4wNTg5IDEuMDAxNWMtMWUtNSAxNS4wNTItMzEuMDc1IDI3LjI2Mi02OS4zNTYgMjcuMjYyLTM3LjY4MyAxZS01IC02OC4zNzYtMTEuODI4LTY5LjMyNi0yNi41NTV2NDAuNjhjLTAuMDE1MSAwLjIzMzc2LTAuMDE0NyAwLjQ1NzA0LTAuMDE0NyAwLjY5MjIzIDAgMC4yMjU0NiA4LjdlLTQgMC40NTMzNSAwLjAxNDcgMC42Nzc1MSAwLjkxMTUxIDE0Ljc0MSAzMS42MTkgMjYuNTk5IDY5LjMyNiAyNi41OTlzNjguNDE1LTExLjg1OCA2OS4zMjYtMjYuNTk5aDAuMDI5NXYtMC41MDA3N2M5LjVlLTQgLTAuMDU4NyAwLTAuMTE3OTQgMC0wLjE3Njc0czkuNGUtNCAtMC4xMTgwMyAwLTAuMTc2NzR2LTQxLjkwMnoiLz4mI3hhOyAgPHBhdGggZmlsbD0idXJsKCNiKSIgZD0ibTQ3NS43MSA2MDIuNzJjMCAxNC4zOTktNjUuODc4IDI2LjA3MS0xNDcuMTQgMjYuMDcxcy0xNDcuMTQtMTEuNjczLTE0Ny4xNC0yNi4wNzEgNjUuODc4LTI2LjA3MSAxNDcuMTQtMjYuMDcxIDE0Ny4xNCAxMS42NzMgMTQ3LjE0IDI2LjA3MXoiIHRyYW5zZm9ybT0ibWF0cml4KC40NzEzMSAwIDAgMS4wNDU5IC01MS45IC00ODQuNTgpIi8+JiN4YTsgIDxwYXRoIGZpbGw9InVybCgjZikiIGQ9Im00NzUuNzEgNjAyLjcyYzAgMTQuMzk5LTY1Ljg3OCAyNi4wNzEtMTQ3LjE0IDI2LjA3MXMtMTQ3LjE0LTExLjY3My0xNDcuMTQtMjYuMDcxIDY1Ljg3OC0yNi4wNzEgMTQ3LjE0LTI2LjA3MSAxNDcuMTQgMTEuNjczIDE0Ny4xNCAyNi4wNzF6IiB0cmFuc2Zvcm09Im1hdHJpeCguNDYyODEgMCAwIDEuMDI3MSAtNDguNzUyIC00NzUuMTMpIi8+JiN4YTsgPC9nPiYjeGE7PC9zdmc+;" vertex="1" parent="1">
          <mxGeometry x="1025.26" y="510" width="49.48" height="60" as="geometry" />
        </mxCell>
        <mxCell id="AhOyB6xF3FRpd3r5ZhqJ-31" value="&lt;font face=&quot;Comic Sans MS&quot;&gt;&lt;span style=&quot;font-size: 16px;&quot;&gt;Matches?&lt;br&gt;&lt;/span&gt;&lt;/font&gt;" style="ellipse;shape=cloud;whiteSpace=wrap;html=1;sketch=1;curveFitting=1;jiggle=2;fillColor=#dae8fc;strokeColor=#6c8ebf;" vertex="1" parent="1">
          <mxGeometry x="905" y="450" width="120" height="80" as="geometry" />
        </mxCell>
        <mxCell id="AhOyB6xF3FRpd3r5ZhqJ-33" value="" style="endArrow=classic;html=1;rounded=0;sketch=1;curveFitting=1;jiggle=2;" edge="1" parent="1">
          <mxGeometry width="50" height="50" relative="1" as="geometry">
            <mxPoint x="1015" y="440.11" as="sourcePoint" />
            <mxPoint x="915" y="442.39" as="targetPoint" />
          </mxGeometry>
        </mxCell>
        <mxCell id="AhOyB6xF3FRpd3r5ZhqJ-34" value="&lt;font face=&quot;Comic Sans MS&quot;&gt;&lt;span style=&quot;font-size: 16px;&quot;&gt;Validate access key&lt;br&gt;&lt;/span&gt;&lt;/font&gt;" style="rounded=0;whiteSpace=wrap;html=1;sketch=1;curveFitting=1;jiggle=2;" vertex="1" parent="1">
          <mxGeometry x="1130" y="420" width="90" height="42.5" as="geometry" />
        </mxCell>
        <mxCell id="AhOyB6xF3FRpd3r5ZhqJ-35" value="" style="endArrow=classic;html=1;rounded=0;sketch=1;curveFitting=1;jiggle=2;" edge="1" parent="1">
          <mxGeometry width="50" height="50" relative="1" as="geometry">
            <mxPoint x="1119.74" y="440.11" as="sourcePoint" />
            <mxPoint x="1074.74" y="440" as="targetPoint" />
          </mxGeometry>
        </mxCell>
        <mxCell id="AhOyB6xF3FRpd3r5ZhqJ-36" value="&lt;font face=&quot;Comic Sans MS&quot;&gt;&lt;span style=&quot;font-size: 16px;&quot;&gt;Store new credentials&lt;br&gt;&lt;/span&gt;&lt;/font&gt;" style="rounded=0;whiteSpace=wrap;html=1;sketch=1;curveFitting=1;jiggle=2;" vertex="1" parent="1">
          <mxGeometry x="804.74" y="420" width="90" height="42.5" as="geometry" />
        </mxCell>
        <mxCell id="AhOyB6xF3FRpd3r5ZhqJ-38" value="" style="curved=1;endArrow=classic;html=1;rounded=0;entryX=-0.009;entryY=0.607;entryDx=0;entryDy=0;entryPerimeter=0;sketch=1;curveFitting=1;jiggle=2;" edge="1" parent="1" target="AhOyB6xF3FRpd3r5ZhqJ-26">
          <mxGeometry width="50" height="50" relative="1" as="geometry">
            <mxPoint x="850" y="470" as="sourcePoint" />
            <mxPoint x="950" y="550" as="targetPoint" />
            <Array as="points">
              <mxPoint x="900" y="550" />
            </Array>
          </mxGeometry>
        </mxCell>
        <mxCell id="AhOyB6xF3FRpd3r5ZhqJ-39" value="&lt;font face=&quot;Comic Sans MS&quot;&gt;&lt;span style=&quot;font-size: 16px;&quot;&gt;&amp;amp; Remove&lt;br&gt;access key&lt;br&gt;&lt;/span&gt;&lt;/font&gt;" style="ellipse;shape=cloud;whiteSpace=wrap;html=1;sketch=1;curveFitting=1;jiggle=2;fillColor=#dae8fc;strokeColor=#6c8ebf;" vertex="1" parent="1">
          <mxGeometry x="840" y="530" width="120" height="80" as="geometry" />
        </mxCell>
        <mxCell id="AhOyB6xF3FRpd3r5ZhqJ-42" value="&lt;font face=&quot;Comic Sans MS&quot;&gt;&lt;span style=&quot;font-size: 16px;&quot;&gt;Can&#39;t find email?&lt;br&gt;&lt;/span&gt;&lt;/font&gt;" style="rounded=0;whiteSpace=wrap;html=1;sketch=1;curveFitting=1;jiggle=2;" vertex="1" parent="1">
          <mxGeometry x="1155" y="155" width="110" height="55" as="geometry" />
        </mxCell>
        <mxCell id="AhOyB6xF3FRpd3r5ZhqJ-43" value="" style="endArrow=classic;html=1;rounded=0;sketch=1;curveFitting=1;jiggle=2;" edge="1" parent="1">
          <mxGeometry width="50" height="50" relative="1" as="geometry">
            <mxPoint x="1280" y="182.20999999999998" as="sourcePoint" />
            <mxPoint x="1310" y="182.20999999999998" as="targetPoint" />
          </mxGeometry>
        </mxCell>
        <mxCell id="AhOyB6xF3FRpd3r5ZhqJ-45" value="&lt;font face=&quot;Comic Sans MS&quot; style=&quot;font-size: 16px;&quot;&gt;Reset&amp;nbsp;&lt;br style=&quot;border-color: var(--border-color);&quot;&gt;access key re-send email&lt;/font&gt;&lt;font face=&quot;Comic Sans MS&quot;&gt;&lt;span style=&quot;font-size: 16px;&quot;&gt;&lt;br&gt;&lt;/span&gt;&lt;/font&gt;" style="rounded=1;whiteSpace=wrap;html=1;sketch=1;curveFitting=1;jiggle=2;glass=0;" vertex="1" parent="1">
          <mxGeometry x="1330" y="155" width="150" height="65" as="geometry" />
        </mxCell>
        <mxCell id="AhOyB6xF3FRpd3r5ZhqJ-46" value="" style="endArrow=classic;html=1;rounded=0;exitX=0.5;exitY=1;exitDx=0;exitDy=0;sketch=1;curveFitting=1;jiggle=2;" edge="1" parent="1" source="AhOyB6xF3FRpd3r5ZhqJ-45" target="AhOyB6xF3FRpd3r5ZhqJ-22">
          <mxGeometry width="50" height="50" relative="1" as="geometry">
            <mxPoint x="1410" y="230" as="sourcePoint" />
            <mxPoint x="1380" y="280" as="targetPoint" />
          </mxGeometry>
        </mxCell>
        <mxCell id="AhOyB6xF3FRpd3r5ZhqJ-48" value="" style="endArrow=classic;html=1;rounded=0;sketch=1;curveFitting=1;jiggle=2;" edge="1" parent="1">
          <mxGeometry width="50" height="50" relative="1" as="geometry">
            <mxPoint x="1270" y="300" as="sourcePoint" />
            <mxPoint x="1300" y="322.63" as="targetPoint" />
          </mxGeometry>
        </mxCell>
        <mxCell id="AhOyB6xF3FRpd3r5ZhqJ-49" value="&lt;font face=&quot;Comic Sans MS&quot;&gt;&lt;span style=&quot;font-size: 16px;&quot;&gt;Request acc. recovery again&lt;br&gt;&lt;/span&gt;&lt;/font&gt;" style="ellipse;shape=cloud;whiteSpace=wrap;html=1;sketch=1;curveFitting=1;jiggle=2;fillColor=#dae8fc;strokeColor=#6c8ebf;" vertex="1" parent="1">
          <mxGeometry x="1220" y="75" width="160" height="80" as="geometry" />
        </mxCell>
        <mxCell id="AhOyB6xF3FRpd3r5ZhqJ-50" value="" style="curved=1;endArrow=classic;html=1;rounded=0;sketch=1;curveFitting=1;jiggle=2;" edge="1" parent="1">
          <mxGeometry width="50" height="50" relative="1" as="geometry">
            <mxPoint x="1300" y="396.25" as="sourcePoint" />
            <mxPoint x="1230" y="426.25" as="targetPoint" />
            <Array as="points">
              <mxPoint x="1290" y="406.25" />
              <mxPoint x="1270" y="416.25" />
              <mxPoint x="1250" y="408.75" />
            </Array>
          </mxGeometry>
        </mxCell>
        <mxCell id="AhOyB6xF3FRpd3r5ZhqJ-51" value="&lt;font face=&quot;Comic Sans MS&quot;&gt;&lt;span style=&quot;font-size: 16px;&quot;&gt;Submitted?&lt;br&gt;&lt;/span&gt;&lt;/font&gt;" style="ellipse;shape=cloud;whiteSpace=wrap;html=1;sketch=1;curveFitting=1;jiggle=2;fillColor=#dae8fc;strokeColor=#6c8ebf;" vertex="1" parent="1">
          <mxGeometry x="1260" y="401.25" width="140" height="80" as="geometry" />
        </mxCell>
        <mxCell id="AhOyB6xF3FRpd3r5ZhqJ-52" value="" style="curved=1;endArrow=classic;html=1;rounded=0;sketch=1;curveFitting=1;jiggle=2;" edge="1" parent="1">
          <mxGeometry width="50" height="50" relative="1" as="geometry">
            <mxPoint x="800" y="460" as="sourcePoint" />
            <mxPoint x="610" y="500" as="targetPoint" />
            <Array as="points">
              <mxPoint x="760" y="520" />
              <mxPoint x="710" y="470" />
            </Array>
          </mxGeometry>
        </mxCell>
        <mxCell id="AhOyB6xF3FRpd3r5ZhqJ-53" value="&lt;font face=&quot;Comic Sans MS&quot;&gt;&lt;span style=&quot;font-size: 16px;&quot;&gt;Auth page&lt;br&gt;&lt;/span&gt;&lt;/font&gt;" style="rounded=0;whiteSpace=wrap;html=1;sketch=1;curveFitting=1;jiggle=2;" vertex="1" parent="1">
          <mxGeometry x="510" y="480" width="90" height="50" as="geometry" />
        </mxCell>
        <mxCell id="AhOyB6xF3FRpd3r5ZhqJ-54" value="&lt;font face=&quot;Comic Sans MS&quot;&gt;&lt;span style=&quot;font-size: 16px;&quot;&gt;Redirect&lt;br&gt;&lt;/span&gt;&lt;/font&gt;" style="ellipse;shape=cloud;whiteSpace=wrap;html=1;sketch=1;curveFitting=1;jiggle=2;fillColor=#dae8fc;strokeColor=#6c8ebf;" vertex="1" parent="1">
          <mxGeometry x="660" y="500" width="120" height="80" as="geometry" />
        </mxCell>
      </root>
    </mxGraphModel>
  </diagram>
</mxfile>
